<svg xmlns="http://www.w3.org/2000/svg"><symbol id="email" viewBox="0 0 1000 1000"><path fill="#fff" d="M499.9 989.8C228.4 989.2 9.4 769.3 10.2 498 10.9 229.1 231.4 9.5 500.1 10.2c271.5.6 490.5 220.6 489.8 491.9-.8 268.8-221.3 488.4-490 487.7z"/><path d="M787.7 688.5H212.3V373.9c3.3 1.8 6.4 3.3 9.4 5 84.5 48 169.1 95.8 253.4 144.2 17.1 9.9 31.9 10.2 49.3.2 83.9-48.4 168.3-95.8 252.5-143.6l10.8-5.9z"/><path d="M235.1 311.5h529.5c-3.4 2.5-5.4 4.4-7.8 5.7q-124.2 70.7-248.6 141c-4 2.2-11.2 2.9-15 .8q-126.1-70.9-251.6-142.6c-1.8-1-3.3-2.4-6.5-4.9z"/></symbol><symbol id="facebook" viewBox="0 0 1000 1000"><path fill="#fff" d="M611.3 984.2c12.8-3.5 25.7-6.6 38.3-10.6a495.8 495.8 0 0 0 328.9-344.5 478.9 478.9 0 0 0 15.6-97.4 42.1 42.1 0 0 1 1.2-6.1v-53.8c-1.6-11.7-3.2-23.4-4.7-35.1-8.1-64.1-28.7-124-60.6-180.1A493.8 493.8 0 0 0 685.5 42.8c-63-25.5-128.4-37.2-196.2-35.7a494.3 494.3 0 0 0-371.5 180c-49.1 59.5-83 126.8-99.7 202.2-5.4 24.4-7.9 49.4-11.8 74.1-.4 2.8-1.1 5.6-1.6 8.4v60.1c2.1 15.6 4 31.3 6.3 46.9 9.2 63.5 31.3 122.4 64 177.2a486.7 486.7 0 0 0 114.2 131c50 40.1 105.8 70 167.3 88.5 21.3 6.4 43.3 10.6 65.7 15.9 97.6 8.6 189.1-7.2 189.1-7.2z"/><path d="M591.4 987.1V620h8.9c29.9 0 59.7-.1 89.6.1 5.1 0 7-1.4 7-6.8q-.3-54.7 0-109.4c0-5.3-1.9-6.8-7-6.8-30.1.2-60.2.1-90.3.1-1.9 0-4 .5-5.6-.2s-4.1-2.6-4.2-4c-.2-24.4-1.1-48.9 8.4-72.3 11.1-27 30.5-42.9 59.9-45.4a157.9 157.9 0 0 1 53.2 4.6c2.8.7 5.7 1.3 8.8 1.9a23.3 23.3 0 0 0 .9-3.6c2.1-39.7 4.1-79.4 6.3-119 .2-4.3-1.6-5.9-5.5-6.5-15.3-2.5-30.5-6.2-45.8-7.7-48.5-4.7-95.6-.6-140.3 21.3-48.8 24-79.5 63.3-97 113.6-12.2 35-16.5 71.3-15.6 108.3.1 2.7 0 5.4 0 8.8h-8.7c-18.3 0-36.7.1-55-.1-4.9-.1-6.5 1.6-6.5 6.5q.2 55 0 110.1c0 5 1.8 6.4 6.6 6.4 18.6-.2 37.2-.1 55.7-.1 2.5 0 5 .2 7.5.3v372.8c117.4 5.1 168.7-5.8 168.7-5.8z"/></symbol><symbol id="happy-tails" viewBox="0 0 1000 1000"><path fill="#550c18" d="M552.5 754.2c14.6-22.6 11.3-53.4-7.8-72.4l-1.1-1.1c-11.5-11.5-24.9-12.7-39.5-18.3-12.6-4.8-24.2-12.4-32-23.7-9.1-13.1-11.7-29.2-10.7-44.9.7-11.2 3.5-35.5-16.9-29.1-13.5 4.2-20.8 30.3-24.3 42.3a149.9 149.9 0 0 0-5.5 48 166 166 0 0 0 37.3 97.2c24.7 27.1 76.3 34.5 100.5 2zM669 526.3z"/><path fill="#550c18" d="M857 423.6l-29.9-116.3a104 104 0 0 0-70.1-73.4L647 200c-82.8-69-210.7-69-293.6-.2L243 233.9a104 104 0 0 0-70.1 73.4L143 423.6a32.6 32.6 0 0 0 28.5 40.6l51 4.8a83.9 83.9 0 0 0 18.6-.4c11.6 37 37.1 68.1 68.4 90.3-30.6 53.4-50 125.3-21.1 183.6 75.8 141.3 342.6 149.9 423.3 0 28.9-58.2 9.6-130.2-21.1-183.6 31.4-22.2 56.9-53.3 68.4-90.3a84.1 84.1 0 0 0 18.3.3l51-4.8a32.6 32.6 0 0 0 28.7-40.5zM669.2 526.1l-.4.3-.2.2a182.3 182.3 0 0 1-24.6 14.7c33.3 42.1 52.1 108.5 39.9 163.3-50.7 155.5-319.6 125.2-362.2 16.4-24.2-55.8.4-135.1 34.6-179.7-35.6-17.8-66.9-47.6-78.3-86.6a84.3 84.3 0 0 0 35.1-51.9L341 274.3c65.5-115.1 251.6-115.5 317.8-.9l28.1 129.3a84.3 84.3 0 0 0 35.4 52.1c-8.2 27.9-27 52.6-53.1 71.3z"/></symbol><symbol id="newsletters" viewBox="0 0 1000 1000"><path fill="#550c18" d="M224.3 289.6c-35.8 0-65.3 29.5-65.3 65.3v290.2c0 35.8 29.5 65.3 65.3 65.3h551.4c35.8 0 65.3-29.5 65.3-65.3V354.9c0-35.8-29.5-65.3-65.3-65.3zm18.8 43.5h514L516.6 558.5c-9.7 9.1-22.9 9.1-32.6 0zm-40.6 21.8l151.3 141.5L202.5 644zm594.9 0V644l-151-147.4zm-412 171.2l68.6 64.1c25.8 24.2 66.7 24.2 92.5 0l68.2-63.9 143.8 140.6h-517l144-140.8z"/></symbol><symbol id="twitter" viewBox="0 0 1000 1000"><path fill="#fff" d="M7.3 499.5C8 226.5 227.9 7 500.3 7.3s493.3 221.5 492.4 495.1c-.9 271-222.8 491-494.2 490.2S6.6 770.6 7.3 499.5z"/><path d="M238.1 698.7c57.2.5 111.3-9.4 159.2-44.8-43.5-14.6-84.1-32.3-101.6-83.1h40.7l1.2-3.8c-23.1-10.3-43.9-23.5-59.5-43.5s-22.2-44.3-25.6-71.5l42.5 12 3.9-2.3c-45.2-44.6-54.6-95.2-28.9-153.9 63.7 71.2 140.2 116.3 237.9 123.1 0-14.2-1.4-28.4.2-42.3 9.6-80.6 101.9-126 171.8-84.9 2.5 1.5 5.4 2.7 7.4 4.7 15.9 16.2 33.3 15.1 52.3 6.1 12.7-6 26.1-10.6 39.2-15.9l3.2 2.7-37.8 54.1 1.3 3 46.6-13.1 2 2.8c-6 7.2-11.8 14.6-18.1 21.6s-12.1 12.9-18.6 18.8c-12 11.1-16.8 24.2-17.8 41.1-9.8 154.8-115.9 292.2-272.6 316.7q-118 18.4-222.5-39.1a74.2 74.2 0 0 1-6.9-4.9z"/></symbol></svg>