<svg xmlns="http://www.w3.org/2000/svg" width="3.6in" height="3.6in" viewBox="0 0 256 256"><title>Logo 256px</title><path d="M69.8 210.4c-7.2 2.9-20.2 4.8-21.1.5s16.1-15 19.1-19.8 12.9-22.9 15-27.5 2.3-6.1 8.6-7.8 17.4-4.4 21.6-10.4 9.5-14 12.3-12.3a3.5 3.5 0 0 1 1.6 4.4c6.7 16.7-4 20.8-5.5 30.4 3 0 8.1-5.4 11.2-5.2s5.3-3.1 5.7.4c1.8 16-13.1 17.2-13.1 33.8s.8 37.5 17.4 49.9 33.2 9.4 38.7-4.8 12.2-49.8-3.4-95.5-28.6-53.7-54.2-49.2c-28.1 4.9-55.5 15.8-89.9 53.2s-25.2 64.5-16.9 74.4 48.3 16.4 52.9-14.5zm128.2 1.8c0-33-8.2-59.1 32.6-77.7 5.1-2.6 7.2-9.7 7.2-9.7 4.3 15.5 11 26.2 7.8 43.7s-18.5 43.7-47.6 43.7zm-169.2-73c21.5-25 44.8-39.5 25.9-80.2-2.2-5.4.9-12 .9-12-13.4 8.9-25.4 12.7-34.4 28.1s-14.4 45.2 7.6 64.1zm53.8-42.9c-12.7-24.6 2.4-72.8 45.7-81.5a20.5 20.5 0 0 0 15.2-12.6l.3-.7c19.2 24.8 13.1 69.8-20.1 83.8l-41.1 11zm108.4 44.7c.7-7.9-25-35.6-24.9-61.9-.1-33.7 14.8-44.2 21.6-58.9 5.6-10.9 11.1-12.2 11.1-12.2-1.8 11 27.8 28.9 30.6 61 2.3 26.5-7.7 64.6-38.4 72z" fill="#2a4b62"/></svg>