<svg id="Layer_1" data-name="Layer 1" xmlns="http://www.w3.org/2000/svg" width="7.1in" height="3.6in" viewBox="0 0 514.1 256"><title>Logo 256px</title><path d="M69.8,210.4c-7.2,2.9-20.2,4.8-21.1.5s16.1-15,19.1-19.8,12.9-22.9,15-27.5,2.3-6.1,8.6-7.8,17.4-4.4,21.6-10.4,9.5-14,12.3-12.3a3.5,3.5,0,0,1,1.6,4.4c6.7,16.7-4,20.8-5.5,30.4,3,0,8.1-5.4,11.2-5.2s5.3-3.1,5.7.4c1.8,16-13.1,17.2-13.1,33.8s.8,37.5,17.4,49.9,33.2,9.4,38.7-4.8,12.2-49.8-3.4-95.5-28.6-53.7-54.2-49.2c-28.1,4.9-55.5,15.8-89.9,53.2S8.6,215,16.9,224.9,65.2,241.3,69.8,210.4Z" fill="#550c18"/><path d="M198,212.2c0-33-8.2-59.1,32.6-77.7,5.1-2.6,7.2-9.7,7.2-9.7,4.3,15.5,11,26.2,7.8,43.7S227.1,212.2,198,212.2Z" fill="#550c18"/><path d="M28.8,139.2c21.5-25,44.8-39.5,25.9-80.2-2.2-5.4.9-12,.9-12C42.2,55.9,30.2,59.7,21.2,75.1S6.8,120.3,28.8,139.2Z" fill="#550c18"/><path d="M82.6,96.3C69.9,71.7,85,23.5,128.3,14.8A20.5,20.5,0,0,0,143.5,2.2l.3-.7c19.2,24.8,13.1,69.8-20.1,83.8S82.6,96.3,82.6,96.3Z" fill="#550c18"/><path d="M191,141c.7-7.9-25-35.6-24.9-61.9-.1-33.7,14.8-44.2,21.6-58.9,5.6-10.9,11.1-12.2,11.1-12.2-1.8,11,27.8,28.9,30.6,61C231.7,95.5,221.7,133.6,191,141Z" fill="#550c18"/><path d="M304.1,124.8l4.6-.6c1.8-.3,2.1-.3,2.2-1.2s.2-2.8.2-5.7V83.9c0-2.9-.1-3.9-.2-5.6s-.4-1-2.2-1.3l-4.5-.5V71.8c3.8.3,9,.4,12.8.4s11.2-.1,14.8-.4v4.6l-6.6.5c-1.8.2-2,.4-2.1,1.3s-.2,2.7-.2,5.6v32.5a17.8,17.8,0,0,0,.5,5.2c.5,1.5,1.5,1.9,5.6,1.9s9.3-.4,10.3-1.2,2.4-5.6,3.4-10.4l4.8.7-1.5,16.7c-14.2,0-23.4-.5-29.5-.5-3.7,0-7.2.1-12.5.5Z"/><path d="M372.6,87.3c12.1,0,18.8,7.1,18.8,19.8,0,14.7-7.3,23-20.9,23s-18.9-7-18.9-19.3C351.6,95.5,359.4,87.3,372.6,87.3Zm7,21.5c0-10-3-16-8.2-16s-8.1,5.1-8.1,15.8,2.9,16,8.5,16S379.7,118.7,379.7,108.7Z"/><path d="M397.7,96.8c-1.1-2.7-1.9-4-3.5-4.2l-1.6-.3V88.1l10.8.3,10.5-.3v4.3l-3.4.7c-1.5.4-2,.7-2,1.5a8.2,8.2,0,0,0,.5,2.3l1.5,4.1c2,5.2,4.3,11.6,5.8,16.1h.3l5.3-12.9c2.5-6.1,2.9-8.6,2.9-9.5s-.5-1.3-2-1.6l-3.5-.7V88.1l9,.3,9-.3v4.3l-4.2.5c-1.5,4.5-4.4,11.3-6.2,15.6S417,132,415.3,136.4s-11.1,21.2-11.9,22.6a3.7,3.7,0,0,1-3.5,2c-1.9,0-4.3-1.4-7.3-4.5,4.2-4,15.5-20.5,18-25.7Z" fill="#550c18"/><path d="M436.2,118.3a5.1,5.1,0,0,1,2.4-4.4c4.3-3.4,10.6-6.3,18.4-8.6v-2.1c0-5.9-1.5-8.1-5.4-8.1s-5.8,1-10.3,3.5L439,94.9c7.3-5.1,13.6-7.6,18.7-7.6,6.9,0,9.3,4.3,9.3,12.2,0,4.2-.2,8.5-.2,12.7a51.9,51.9,0,0,0,.8,11.2l6,1.3v3.3l-15.4,2.2a10.3,10.3,0,0,1-1.4-4.3l-.5-.2c-3.7,2.9-7.4,4.5-11.1,4.5C438.9,130.1,436.2,124,436.2,118.3Zm15,4.8c4.6,0,5.7-3.8,5.7-7.9v-3.5c-5.7.4-9.6,2.5-9.6,6.9C447.3,121.5,448.7,123.1,451.2,123.1Z"/><path d="M474.7,124.9l3.3-.5c1.8-.4,2.1-.4,2.2-1.3s.1-2.8.1-5.7V90.9a178.1,178.1,0,0,0-1.7-25.5A33,33,0,0,0,489.2,62l2.3,1.6v53.8c0,2.9.1,4,.2,5.7s.4.9,2.2,1.3l3.1.5v4.3l-11.2-.3-11.1.3Z"/><path d="M259.1,182.7l4.6-.6c1.8-.3,2.1-.4,2.2-1.3s.2-2.7.2-5.6V134.8l-6.6.3v-4.8a138.3,138.3,0,0,1,16.1-.7c9.7,0,16.2.5,20.8,2.4s7.2,5.7,7.2,10.6c0,7.2-4.2,12-9.7,15.8a97.3,97.3,0,0,0,10.3,16.2,67.6,67.6,0,0,0,9.7,10l-1.5,3.1h-1.1c-9.6,0-16.9-7.4-22.9-17-1.2-1.8-2.6-4.1-3.8-6.3s-3.5-3.6-6.4-3.6h-.5v14.5c0,2.9.1,3.9.2,5.6s.3,1,2.1,1.3l4.5.6v4.5c-3.8-.2-8.9-.3-12.7-.3s-8.8.1-12.5.3Zm19.2-26.7c9.1,0,13.3-3.9,13.3-11.4s-6-10.1-14.1-10.1v21.5Z"/><path d="M313.7,167.6c0-13.5,7.7-22.3,19.1-22.3,9.1,0,14.9,5.6,14.9,14.3a28.3,28.3,0,0,1-.5,5.1H324.5v1.2c0,9.1,4.2,13.6,12,13.6a19.6,19.6,0,0,0,10.5-3l2.1,3.4c-7.3,6.1-12.2,8.4-18.3,8.4C320.5,188.1,313.7,179.9,313.7,167.6Zm22.7-9.1a10.5,10.5,0,0,0,.1-1.5c0-3.5-2.1-5.7-5-5.7s-5.8,2.8-6.6,8.3Z"/><path d="M351.7,182.5c0-1.5,2.8-5.2,3.7-6.5,4.3,2.4,7.9,3.6,10.6,3.6s4.3-1.3,4.3-3.4-2-3.7-7.8-6.4-9.3-5.3-9.3-9.7c0-2.8,1.1-5.4,3.9-8.8s7-6.1,10.9-6.1a28.4,28.4,0,0,1,8.3,1.5c1,.4,1.6.9,1.6,1.9s-.9,3.5-2.8,7.1c-3.8-1.6-7.2-2.6-9.6-2.6s-3.4,1.1-3.4,2.7,1.5,3.3,7.6,6.1c7.8,3.5,9.8,5.3,9.8,9.6,0,2.6-1.3,5.5-3.5,8.4-3.7,5.1-7.9,8.2-11.8,8.2a26.7,26.7,0,0,1-10.2-2.7C352.4,184.5,351.7,183.7,351.7,182.5Z"/><path d="M390.6,146.4c4.2-3.2,7.5-3.9,8.9-2.1s1.9,3.7,2.5,7.1a16.8,16.8,0,0,0-7.5,3.3c-4.5,3.5-5.1,8.5-.5,14.4,6.1,7.8,12.5,8.5,18.5,3.8a16.7,16.7,0,0,0,4.8-5.7l3.6,1.6c-2,7.9-3.8,11.4-7.9,14.6-7.4,5.8-16.4,4.5-23.6-4.6C381,168.1,382,153.2,390.6,146.4Z"/><path d="M423.8,158.1c0-2.4.1-4.3,0-5.6s-.3-1-2.2-1.3l-3.3-.5v-4.3l16.7-.6v24.4c0,8.2,1.3,10.6,5.6,10.6a6.3,6.3,0,0,0,5.6-3c.9-1.6,1.1-3.9,1.1-7.2V158.1c0-2.4,0-4.3-.1-5.6s-.3-1-2.2-1.3l-3.3-.5v-4.3l16.8-.6v24c0,4.5.1,9.3.8,11.6l6,1.3v3.3L449,188.1a12.5,12.5,0,0,1-1.5-4.3l-.5-.2c-5.5,3.2-9.4,4.5-13.6,4.5-7.1,0-9.7-4.2-9.7-15.4Z"/><path d="M467.7,167.6c0-13.5,7.7-22.3,19.1-22.3,9.1,0,14.9,5.6,14.9,14.3a28.3,28.3,0,0,1-.5,5.1H478.4v1.2c0,9.1,4.2,13.6,12,13.6a19.6,19.6,0,0,0,10.5-3l2.1,3.4c-7.3,6.1-12.2,8.4-18.3,8.4C474.5,188.1,467.7,179.9,467.7,167.6Zm22.7-9.1a10.5,10.5,0,0,0,.1-1.5c0-3.5-2.1-5.7-5-5.7s-5.8,2.8-6.6,8.3Z"/><path d="M392.7,156.6a7,7,0,0,1-1.5-4c2.5,1.6,7.6-.3,7.6-.3C396.8,152.9,392.7,156.6,392.7,156.6Z" fill="#550c18"/></svg>