<?xml version="1.0" encoding="utf-8"?>
<!-- Generator: Adobe Illustrator 21.0.2, SVG Export Plug-In . SVG Version: 6.00 Build 0)  -->
<svg version="1.1" id="Layer_1" xmlns="http://www.w3.org/2000/svg" xmlns:xlink="http://www.w3.org/1999/xlink" x="0px" y="0px"
	 viewBox="0 0 259.2 259.2" style="enable-background:new 0 0 259.2 259.2;" xml:space="preserve">
<style type="text/css">
	.st0{fill:#550C18;}
</style>
<title>Logo 256px</title>
<path class="st0" d="M70.7,213c-7.3,2.9-20.5,4.9-21.4,0.5c-0.9-4.4,16.3-15.2,19.3-20s13.1-23.2,15.2-27.8c2.1-4.7,2.3-6.2,8.7-7.9
	c6.4-1.7,17.6-4.5,21.9-10.5s9.6-14.2,12.5-12.5c1.6,0.9,2.3,2.8,1.6,4.5c6.8,16.9-4,21.1-5.6,30.8c3,0,8.2-5.5,11.3-5.3
	c3.1,0.2,5.4-3.1,5.8,0.4c1.8,16.2-13.3,17.4-13.3,34.2s0.8,38,17.6,50.5c16.8,12.6,33.6,9.5,39.2-4.9c5.6-14.4,12.4-50.4-3.4-96.7
	s-29-54.4-54.9-49.8c-28.5,5-56.2,16-91,53.9s-25.5,65.3-17.1,75.3S66,244.3,70.7,213z M200.5,214.9c0-33.4-8.3-59.8,33-78.7
	c5.2-2.6,7.3-9.8,7.3-9.8c4.4,15.7,11.1,26.5,7.9,44.2C245.4,188.3,229.9,214.9,200.5,214.9z M29.2,140.9
	c21.8-25.3,45.4-40,26.2-81.2c-2.2-5.5,0.9-12.1,0.9-12.1c-13.6,9-25.7,12.9-34.8,28.5S6.9,121.8,29.2,140.9z M83.6,97.5
	C70.8,72.6,86.1,23.8,129.9,15c7-1.3,12.8-6.2,15.4-12.8l0.3-0.7c19.4,25.1,13.3,70.7-20.4,84.8L83.6,97.5z M193.4,142.8
	c0.7-8-25.3-36-25.2-62.7c-0.1-34.1,15-44.8,21.9-59.6c5.7-11,11.2-12.4,11.2-12.4c-1.8,11.1,28.1,29.3,31,61.8
	C234.6,96.7,224.5,135.3,193.4,142.8L193.4,142.8z"/>
</svg>
