<svg id="Layer_1" data-name="Layer 1" xmlns="http://www.w3.org/2000/svg" width="1000" height="1000" viewBox="0 0 1000 1000"><title>toggle-nav</title><path d="M203.3,273.8H796.7a57.8,57.8,0,0,1,57.8,57.8v12.4a57.8,57.8,0,0,1-57.8,57.8H203.3a57.8,57.8,0,0,1-57.8-57.8V331.7A57.8,57.8,0,0,1,203.3,273.8Zm0,193.5H796.7a57.8,57.8,0,0,1,57.8,57.8v12.4a57.8,57.8,0,0,1-57.8,57.8H203.3a57.8,57.8,0,0,1-57.8-57.8V525.1A57.8,57.8,0,0,1,203.3,467.3Zm0,193.1H796.7a57.8,57.8,0,0,1,57.8,57.8v12.4a57.8,57.8,0,0,1-57.8,57.8H203.3a57.8,57.8,0,0,1-57.8-57.8V718.2A57.8,57.8,0,0,1,203.3,660.4Z" fill="#550c18"/></svg>